<mxfile host="app.diagrams.net" modified="2023-10-18T10:48:15.337Z" agent="Mozilla/5.0 (Macintosh; Intel Mac OS X 10_15_7) AppleWebKit/537.36 (KHTML, like Gecko) Chrome/118.0.0.0 Safari/537.36" version="22.0.4" etag="t64drno9D1kKURzXsSEp" type="github">
  <diagram name="Sayfa -1" id="x0AZe2G2jW9ho5pXdQFt">
    <mxGraphModel>
      <root>
        <mxCell id="0" />
        <mxCell id="1" parent="0" />
      </root>
    </mxGraphModel>
  </diagram>
</mxfile>
